<?xml version="1.0" standalone="no"?>
<!DOCTYPE svg PUBLIC "-//W3C//DTD SVG 20010904//EN"
 "http://www.w3.org/TR/2001/REC-SVG-20010904/DTD/svg10.dtd">
<svg version="1.0" xmlns="http://www.w3.org/2000/svg"
 width="760.000000pt" height="506.000000pt" viewBox="0 0 760.000000 506.000000"
 preserveAspectRatio="xMidYMid meet">

<g transform="translate(0.000000,506.000000) scale(0.100000,-0.100000)"
fill="#000000" stroke="none">
<path d="M2937 3500 c-324 -25 -637 -105 -882 -225 -162 -80 -257 -147 -375
-265 -92 -91 -112 -118 -153 -200 -73 -145 -91 -265 -63 -400 77 -364 518
-684 1106 -804 225 -45 290 -51 590 -50 247 0 302 3 415 22 305 52 558 139
783 269 51 29 192 130 192 137 0 3 -34 -11 -75 -30 -491 -227 -1265 -258
-1826 -74 -332 109 -559 277 -657 488 -23 50 -27 69 -27 157 1 80 5 111 23
155 22 55 117 191 138 197 7 2 31 -74 63 -194 96 -371 140 -536 145 -549 4
-10 25 -14 74 -14 l68 0 93 333 c52 182 97 336 102 341 4 5 13 -11 19 -35 24
-90 161 -585 170 -614 10 -30 10 -30 79 -27 l69 4 26 96 c15 53 68 250 119
437 l93 340 -74 3 c-41 2 -76 1 -78 0 -1 -2 -37 -152 -79 -333 -42 -182 -78
-332 -80 -334 -2 -2 -7 7 -10 20 -4 13 -45 164 -93 334 l-87 310 -72 3 -71 3
-10 -33 c-6 -18 -47 -166 -92 -328 -45 -162 -84 -297 -86 -299 -2 -2 -6 -2 -8
0 -10 10 -148 631 -143 643 15 38 280 160 457 211 574 165 1326 119 1780 -110
89 -45 80 -29 -31 50 -179 129 -466 250 -729 308 -239 53 -563 76 -803 57z"/>
<path d="M4695 2946 c-186 -46 -295 -199 -295 -416 0 -156 58 -282 164 -355
67 -46 132 -65 221 -66 87 0 148 21 196 67 40 39 43 38 53 -18 l7 -38 54 0 55
0 0 220 0 220 -170 0 -170 0 0 -65 0 -65 91 0 92 0 -6 -36 c-21 -130 -193
-185 -317 -102 -70 47 -111 185 -91 301 23 133 89 205 197 214 82 6 139 -23
174 -89 l25 -48 83 0 84 0 -7 33 c-38 183 -237 293 -440 243z"/>
<path d="M5270 2530 l0 -410 285 0 285 0 0 75 0 75 -197 2 -198 3 -3 333 -2
332 -85 0 -85 0 0 -410z"/>
<path d="M3780 2520 l0 -400 55 0 c50 0 55 2 55 22 0 20 1 20 18 5 47 -43 137
-58 216 -36 52 14 119 79 146 141 46 106 46 248 0 338 -24 48 -88 105 -135
120 -63 21 -148 9 -200 -28 l-45 -32 0 135 0 135 -55 0 -55 0 0 -400z m326 84
c66 -31 99 -150 74 -267 -9 -44 -21 -67 -49 -97 -34 -36 -43 -40 -87 -40 -66
0 -110 28 -136 87 -29 65 -23 199 12 260 38 69 113 91 186 57z"/>
<path d="M3360 2711 c-104 -32 -168 -113 -190 -244 -34 -194 66 -351 233 -364
147 -12 251 54 291 185 7 21 5 22 -51 22 -55 0 -59 -2 -73 -33 -22 -46 -73
-77 -129 -77 -84 0 -137 47 -156 138 l-7 32 212 0 213 0 -5 79 c-8 132 -71
231 -167 260 -43 12 -133 13 -171 2z m150 -109 c38 -19 67 -62 72 -107 l3 -30
-150 0 -150 0 3 25 c5 39 47 95 83 113 44 22 95 21 139 -1z"/>
<path d="M5930 2220 c0 -5 7 -10 15 -10 11 0 15 -12 15 -45 0 -25 5 -45 10
-45 6 0 10 13 10 29 0 39 9 61 26 61 8 0 14 5 14 10 0 6 -20 10 -45 10 -25 0
-45 -4 -45 -10z"/>
<path d="M6030 2174 c0 -40 3 -54 13 -51 6 2 11 16 10 30 -3 37 13 34 21 -3 7
-39 23 -38 35 3 8 29 10 27 15 -15 0 -6 7 -13 14 -15 9 -4 12 11 12 51 0 50
-2 56 -20 56 -15 0 -22 -9 -26 -30 -4 -16 -10 -30 -14 -30 -4 0 -10 14 -13 30
-5 21 -12 30 -27 30 -18 0 -20 -6 -20 -56z"/>
</g>
</svg>
